<svg width="277" height="155" viewBox="0 0 277 155" fill="none" xmlns="http://www.w3.org/2000/svg">
<g id="Frame 1" clip-path="url(#clip0)">
<g id="lightGroup">
<path id="white1" d="M65.0639 69.3121C73.789 73.7663 73.789 86.2337 65.0639 90.6879L32.2061 107.462C24.2219 111.538 14.75 105.738 14.75 96.7738V63.2262C14.75 54.2617 24.2219 48.4623 32.2061 52.5383L65.0639 69.3121Z" fill="#C3CCFF"/>
</g>
<g id="darkGroup">
<path id="dark1" d="M65.0639 69.3121C73.789 73.7663 73.789 86.2337 65.0639 90.6879L32.2061 107.462C24.2219 111.538 14.75 105.738 14.75 96.7738V63.2262C14.75 54.2617 24.2219 48.4623 32.2061 52.5383L65.0639 69.3121Z" fill="#7996FD"/>
<path id="dark2" d="M104.064 69.3121C112.789 73.7663 112.789 86.2337 104.064 90.6879L71.2061 107.462C63.2219 111.538 53.75 105.738 53.75 96.7738V63.2262C53.75 54.2617 63.2219 48.4623 71.2061 52.5383L104.064 69.3121Z" fill="#7996FD"/>
</g>
</g>
<defs>
<clipPath id="clip0">
<rect width="277" height="155" fill="white"/>
</clipPath>
</defs>
</svg>
